<svg width="726" height="591" viewBox="0 0 726 591" fill="none" xmlns="http://www.w3.org/2000/svg">
<path d="M465.594 124.894C519.381 178.68 552.914 242.505 563.668 302.198C574.422 361.892 562.391 417.403 525.13 454.664C487.869 491.925 432.358 503.955 372.664 493.201C312.972 482.448 249.146 448.914 195.36 395.128C141.574 341.341 108.04 277.516 97.2866 217.824C86.5325 158.129 98.5633 102.619 135.824 65.3579C173.085 28.097 228.596 16.0662 288.29 26.8203C347.983 37.5739 411.808 71.1072 465.594 124.894Z" stroke="black"/>
<path d="M497.861 92.6269C551.648 146.413 585.181 210.238 595.934 269.931C606.688 329.625 594.658 385.136 557.397 422.397C520.136 459.658 464.625 471.689 404.931 460.935C345.238 450.181 281.413 416.648 227.627 362.861C173.84 309.075 140.307 245.25 129.553 185.557C118.799 125.863 130.83 70.3521 168.091 33.0912C205.352 -4.16977 260.863 -16.2005 320.557 -5.44647C380.25 5.30717 444.075 38.8405 497.861 92.6269Z" stroke="black"/>
<path d="M530.128 60.36C583.914 114.146 617.448 177.972 628.201 237.664C638.955 297.358 626.925 352.869 589.664 390.13C552.403 427.391 496.892 439.422 437.198 428.668C377.505 417.914 313.68 384.381 259.894 330.594C206.107 276.808 172.574 212.983 161.82 153.29C151.066 93.5957 163.097 38.0851 200.358 0.824192C237.619 -36.4367 293.13 -48.4675 352.824 -37.7134C412.516 -26.9598 476.341 6.5735 530.128 60.36Z" stroke="black"/>
</svg>
