<svg width="720" height="721" viewBox="0 0 720 721" fill="none" xmlns="http://www.w3.org/2000/svg">
<path d="M461.741 258.723C515.082 312.064 548.337 375.361 559.002 434.559C569.667 493.759 557.736 548.809 520.784 585.76C483.833 622.712 428.783 634.643 369.583 623.978C310.385 613.313 247.088 580.058 193.747 526.717C140.406 473.376 107.151 410.079 96.4861 350.881C85.8211 291.681 97.7523 236.631 134.704 199.68C171.655 162.728 226.705 150.797 285.905 161.462C345.103 172.127 408.4 205.382 461.741 258.723Z" stroke="black"/>
<path d="M493.741 226.723C547.082 280.064 580.337 343.361 591.002 402.559C601.667 461.759 589.736 516.809 552.784 553.76C515.833 590.712 460.783 602.643 401.583 591.978C342.385 581.313 279.088 548.058 225.747 494.717C172.406 441.376 139.151 378.079 128.486 318.881C117.821 259.681 129.752 204.631 166.704 167.68C203.655 130.728 258.705 118.797 317.905 129.462C377.103 140.127 440.4 173.382 493.741 226.723Z" stroke="black"/>
<path d="M525.741 194.723C579.082 248.064 612.337 311.361 623.002 370.559C633.667 429.759 621.736 484.809 584.784 521.76C547.833 558.712 492.783 570.643 433.583 559.978C374.385 549.313 311.088 516.058 257.747 462.717C204.406 409.376 171.151 346.079 160.486 286.881C149.821 227.681 161.752 172.631 198.704 135.68C235.655 98.7284 290.705 86.7972 349.905 97.4621C409.103 108.127 472.4 141.382 525.741 194.723Z" stroke="black"/>
</svg>
